<svg width="510" height="500" viewBox="0 0 510 500" fill="none" xmlns="http://www.w3.org/2000/svg">
<path d="M497.5 455.872V455.87C497.49 449.543 494.69 443.515 489.776 439.095C484.867 434.68 478.242 432.219 471.36 432.211H471.359H51.145C44.1266 432.211 37.3679 434.716 32.3617 439.219C27.3504 443.726 24.5 449.875 24.5 456.325V456.385C24.5 462.835 27.3504 468.985 32.3617 473.492C37.3679 477.994 44.1266 480.5 51.145 480.5H470.318C473.867 480.5 477.384 479.871 480.67 478.647C483.956 477.423 486.951 475.626 489.481 473.35C492.011 471.074 494.028 468.364 495.408 465.369C496.787 462.373 497.5 459.156 497.5 455.902V455.872ZM110.91 329.295L111.282 329.535H111.725H156.559H159.321L157.817 327.218C139.868 299.571 128.214 262.9 128.214 222.36C128.214 189.363 135.933 158.917 148.484 133.825L149.282 132.23L147.573 131.718C131.681 126.953 116.109 124.735 101.858 125.179L101.858 125.179C80.0956 125.867 61.0331 132.57 46.9365 145.233L46.9359 145.233C30.1332 160.345 22.7083 181.94 24.8752 206.354C27.7202 238.558 47.689 276.25 82.5384 307.593C91.3271 315.508 100.816 322.766 110.91 329.295ZM196.105 329.045L196.552 329.535H197.214H324.786H325.448L325.895 329.045C348.338 304.411 363.214 265.81 363.214 222.36C363.214 177.969 347.68 138.616 324.414 114.083C306.8 95.4853 284.65 84.9911 261 84.9911C237.35 84.9911 215.201 95.485 197.586 114.082C174.321 138.616 158.786 177.968 158.786 222.36C158.786 265.81 173.662 304.411 196.105 329.045ZM364.183 327.218L362.679 329.535H365.441H410.275H410.718L411.09 329.295C421.184 322.766 430.673 315.508 439.462 307.593C474.311 276.25 494.28 238.558 497.125 206.354C499.292 181.94 491.867 160.345 475.064 145.233L475.063 145.233C460.967 132.57 441.904 125.867 420.142 125.179L420.142 125.179C405.891 124.735 390.319 126.953 374.427 131.718L372.718 132.23L373.516 133.825C386.067 158.917 393.786 189.363 393.786 222.36C393.786 262.9 382.132 299.571 364.183 327.218ZM298.902 28.5H223.081C218.28 28.5 213.647 30.2139 210.209 33.3064C206.765 36.4035 204.795 40.6404 204.795 45.0965C204.795 49.5526 206.765 53.7895 210.209 56.8866C213.647 59.9791 218.28 61.693 223.081 61.693H298.902C303.704 61.693 308.336 59.9791 311.774 56.8866C315.218 53.7895 317.188 49.5526 317.188 45.0965C317.188 40.6404 315.218 36.4035 311.774 33.3064C308.336 30.2139 303.704 28.5 298.902 28.5ZM74.8571 380.873C74.8571 394.413 87.608 405.018 102.845 405.018H419.155C434.375 405.018 447.143 394.413 447.143 380.873C447.143 367.332 434.375 356.728 419.155 356.728H102.845C87.608 356.728 74.8571 367.333 74.8571 380.873Z" fill="#800080" fill-opacity="0.4" stroke="#800080" stroke-width="3"/>
<path d="M86 192.469L102.69 242.674L119.38 292.879M411.19 154.674L468 229.969L420 298.5" stroke="white" stroke-width="10"/>
<path d="M51 173.788C51 185.268 60.5098 194.575 72.2407 194.575C83.9717 194.575 93.4818 185.268 93.4818 173.788C93.4818 162.307 83.9717 153 72.2407 153C60.5098 153 51 162.307 51 173.788Z" fill="white" stroke="#800080" stroke-opacity="0.6" stroke-width="6" stroke-miterlimit="0.6"/>
<path d="M396 160.5C396 169.06 403.163 176 412 176C420.836 176 428 169.06 428 160.5C428 151.94 420.836 145 412 145C403.163 145 396 151.94 396 160.5Z" fill="white" stroke="#800080" stroke-opacity="0.6" stroke-width="6" stroke-miterlimit="0.6"/>
<path d="M403 296.5C403 303.404 408.596 309 415.5 309C422.403 309 428 303.404 428 296.5C428 289.596 422.403 284 415.5 284C408.596 284 403 289.596 403 296.5Z" fill="white" stroke="#800080" stroke-opacity="0.6" stroke-width="6" stroke-miterlimit="0.6"/>
<path d="M442 223.788C442 235.268 451.51 244.575 463.241 244.575C474.972 244.575 484.482 235.268 484.482 223.788C484.482 212.307 474.972 203 463.241 203C451.51 203 442 212.307 442 223.788Z" fill="white" stroke="#800080" stroke-opacity="0.6" stroke-width="6" stroke-miterlimit="0.6"/>
<path d="M107 293.5C107 300.404 113.044 306 120.5 306C127.956 306 134 300.404 134 293.5C134 286.596 127.956 281 120.5 281C113.044 281 107 286.596 107 293.5Z" fill="white" stroke="#800080" stroke-opacity="0.6" stroke-width="6" stroke-miterlimit="0.6"/>
<path d="M272.411 140.539L307.685 181.617M190.103 175.749L248.894 140.539M254.773 228.563L295.927 269.641M219.499 257.905L237.136 228.563M254.773 146.407L248.894 210.959M181.285 196.288L201.862 257.905M322.971 219.761L316.504 263.773M295.927 281.378L219.499 275.51" stroke="white" stroke-width="10"/>
<path d="M297.538 199.471C297.538 210.951 307.048 220.258 318.779 220.258C330.51 220.258 340.02 210.951 340.02 199.471C340.02 187.99 330.51 178.683 318.779 178.683C307.048 178.683 297.538 187.99 297.538 199.471Z" fill="white" stroke="#800080" stroke-opacity="0.6" stroke-width="6" stroke-miterlimit="0.6"/>
<path d="M245.955 134.671C245.955 142.773 252.535 149.341 260.652 149.341C268.77 149.341 275.35 142.773 275.35 134.671C275.35 126.568 268.77 120 260.652 120C252.535 120 245.955 126.568 245.955 134.671Z" fill="white" stroke="#800080" stroke-opacity="0.6" stroke-width="6" stroke-miterlimit="0.6"/>
<path d="M169 184.414C169 191.302 174.706 196.886 181.744 196.886C188.783 196.886 194.489 191.302 194.489 184.414C194.489 177.526 188.783 171.941 181.744 171.941C174.706 171.941 169 177.526 169 184.414Z" fill="white" stroke="#800080" stroke-opacity="0.6" stroke-width="6" stroke-miterlimit="0.6"/>
<path d="M232.224 220.497C232.224 227.385 237.93 232.969 244.968 232.969C252.007 232.969 257.713 227.385 257.713 220.497C257.713 213.609 252.007 208.024 244.968 208.024C237.93 208.024 232.224 213.609 232.224 220.497Z" fill="white" stroke="#800080" stroke-opacity="0.6" stroke-width="6" stroke-miterlimit="0.6"/>
<path d="M198.227 266.542C198.227 273.737 204.186 279.569 211.538 279.569C218.889 279.569 224.849 273.737 224.849 266.542C224.849 259.348 218.889 253.515 211.538 253.515C204.186 253.515 198.227 259.348 198.227 266.542Z" fill="white" stroke="#800080" stroke-opacity="0.6" stroke-width="6" stroke-miterlimit="0.6"/>
<path d="M293.38 275.206C293.38 283.723 300.022 290.627 308.215 290.627C316.408 290.627 323.049 283.723 323.049 275.206C323.049 266.689 316.408 259.785 308.215 259.785C300.022 259.785 293.38 266.689 293.38 275.206Z" fill="white" stroke="#800080" stroke-opacity="0.6" stroke-width="6" stroke-miterlimit="0.6"/>
</svg>
